<svg xmlns="http://www.w3.org/2000/svg" width="34.549" height="70.287" viewBox="0 0 34.549 70.287"><defs><style>.a{fill:#98a9bc;}.b{fill:#fff;}</style></defs><g transform="translate(-434.846 -694.138)"><path class="a" d="M229.4,193.24H204.75a4.947,4.947,0,0,1-4.947-4.947V127.9a4.947,4.947,0,0,1,4.947-4.947H229.4a4.947,4.947,0,0,1,4.947,4.947v60.392A4.947,4.947,0,0,1,229.4,193.24Z" transform="translate(235.043 571.185)"/><path class="b" d="M241.3,135.263H238.92a.814.814,0,0,0-.814.814,1.585,1.585,0,0,1-1.585,1.585H222.551a1.585,1.585,0,0,1-1.585-1.585.814.814,0,0,0-.814-.814h-2.377a3.45,3.45,0,0,0-3.45,3.45V198.1a3.45,3.45,0,0,0,3.45,3.45H241.3a3.45,3.45,0,0,0,3.45-3.45v-59.39A3.45,3.45,0,0,0,241.3,135.263Z" transform="translate(222.584 560.624)"/></g></svg>