<svg xmlns="http://www.w3.org/2000/svg" width="66.344" height="74.87" viewBox="0 0 66.344 74.87"><defs><style>.a{fill:#2e7d32;}.b{fill:#fbfbfb;}</style></defs><g transform="translate(-5797 -1658.681)"><path class="a" d="M158.9,338.82H99.392a3.419,3.419,0,0,1-3.42-3.419V267.37a3.42,3.42,0,0,1,3.42-3.42H158.9a3.419,3.419,0,0,1,3.419,3.42V335.4A3.419,3.419,0,0,1,158.9,338.82Z" transform="translate(5701.028 1394.731)"/><rect class="b" width="57.552" height="47.604" transform="translate(5801.44 1681.595)"/><g transform="translate(5813.741 1664.316)"><path class="b" d="M139.494,289.974l-1.182-.665a4.328,4.328,0,0,1-1.8-1.939,6.973,6.973,0,0,1-.616-3.064V283a6.829,6.829,0,0,1,.616-3.034,4.309,4.309,0,0,1,1.8-1.915,5.745,5.745,0,0,1,2.841-.66,6.84,6.84,0,0,1,1.8.23,5.345,5.345,0,0,1,1.518.666,4.121,4.121,0,0,1,1.12,1.06l-1.983,2.027a3.061,3.061,0,0,0-1-.642,3.186,3.186,0,0,0-1.2-.23,2.406,2.406,0,0,0-1.8.654,2.529,2.529,0,0,0-.639,1.844v1.308a2.623,2.623,0,0,0,.639,1.891,2.381,2.381,0,0,0,1.8.666,3.016,3.016,0,0,0,1.21-.247,2.836,2.836,0,0,0,.986-.707l1.983,2.144a4.278,4.278,0,0,1-1.132,1.043,5.327,5.327,0,0,1-1.512.654,6.959,6.959,0,0,1-1.793.224Z" transform="translate(-135.897 -277.389)"/><path class="b" d="M166.042,289.974l-.986-.194a8.881,8.881,0,0,1-1.849-.572,6.7,6.7,0,0,1-1.524-.907l1.894-2.487a7.235,7.235,0,0,0,1.759.872,5.527,5.527,0,0,0,1.748.307,4.383,4.383,0,0,0,1.67-.253q.594-.254.594-.7a.763.763,0,0,0-.257-.625,1.542,1.542,0,0,0-.661-.3,10.2,10.2,0,0,0-1.132-.159l-.409-.047-.42-.047a.726.726,0,0,0-.1-.018.861.861,0,0,0-.1-.006,12,12,0,0,1-2.084-.436,2.676,2.676,0,0,1-1.328-1,3.567,3.567,0,0,1-.543-2.139,3.8,3.8,0,0,1,.56-2.1,3.5,3.5,0,0,1,1.624-1.325,6.566,6.566,0,0,1,2.577-.454,8.393,8.393,0,0,1,1.765.189,8.786,8.786,0,0,1,1.687.542,8.014,8.014,0,0,1,1.49.849l-1.827,2.345a7.186,7.186,0,0,0-1.591-.7,5.556,5.556,0,0,0-1.591-.247,3.73,3.73,0,0,0-1.445.224q-.516.224-.515.624a.534.534,0,0,0,.274.477,1.983,1.983,0,0,0,.684.248q.409.077,1.193.171l.2.023.2.023a.4.4,0,0,0,.1.012.411.411,0,0,1,.1.012,13.362,13.362,0,0,1,2.207.424,2.871,2.871,0,0,1,1.451,1.037,3.7,3.7,0,0,1,.6,2.286,3.948,3.948,0,0,1-.583,2.18,3.655,3.655,0,0,1-1.7,1.385,6.874,6.874,0,0,1-2.7.477Z" transform="translate(-150.871 -277.389)"/><path class="b" d="M196.447,277.811h3.059l-4.37,12.231h-2.174l-4.37-12.231h3.059l2.4,7.671Z" transform="translate(-166.496 -277.634)"/></g><path class="a" d="M145.525,358.441l-3.617-4.572-3.617,4.572H131.58l6.973-8.814L132,341.343h6.712l3.2,4.042,3.2-4.042h6.712l-6.554,8.284,6.973,8.814Zm21.97-17.828H156.7v7.142H167.5Zm0,11.078H156.7v7.142H167.5Zm0,11.078H156.7v7.142H167.5Zm-14.706,0H141.995v7.142h10.794Zm-14.69,0H127.3v7.142H138.1Z" transform="translate(5682.833 1350.214)"/></g></svg>