<svg xmlns="http://www.w3.org/2000/svg" width="79.5" height="74.535" viewBox="0 0 79.5 74.535"><defs><style>.a{fill:#eceff1;}.b{fill:#388e3c;}.c{fill:#2e7d32;}.d{fill:#fafafa;}</style></defs><g transform="translate(0 -15.989)"><path class="a" d="M293.266,134.667H258.484A2.485,2.485,0,0,1,256,132.183V82.5a2.485,2.485,0,0,1,2.484-2.484h34.781A2.485,2.485,0,0,1,295.75,82.5v49.688A2.485,2.485,0,0,1,293.266,134.667Z" transform="translate(-216.25 -54.081)"/><g transform="translate(39.75 35.868)"><path class="b" d="M268.422,148.98h-9.937a2.484,2.484,0,0,1,0-4.969h9.938a2.484,2.484,0,0,1,0,4.969Z" transform="translate(-256 -144.011)"/><path class="b" d="M268.422,212.98h-9.937a2.484,2.484,0,0,1,0-4.969h9.938a2.484,2.484,0,0,1,0,4.969Z" transform="translate(-256 -198.074)"/><path class="b" d="M268.422,276.98h-9.937a2.484,2.484,0,0,1,0-4.969h9.938a2.484,2.484,0,0,1,0,4.969Z" transform="translate(-256 -252.136)"/><path class="b" d="M268.422,340.98h-9.937a2.484,2.484,0,0,1,0-4.969h9.938a2.484,2.484,0,0,1,0,4.969Z" transform="translate(-256 -306.198)"/><path class="b" d="M391.453,148.98h-4.969a2.484,2.484,0,0,1,0-4.969h4.969a2.484,2.484,0,0,1,0,4.969Z" transform="translate(-364.125 -144.011)"/><path class="b" d="M391.453,212.98h-4.969a2.484,2.484,0,0,1,0-4.969h4.969a2.484,2.484,0,0,1,0,4.969Z" transform="translate(-364.125 -198.074)"/><path class="b" d="M391.453,276.98h-4.969a2.484,2.484,0,0,1,0-4.969h4.969a2.484,2.484,0,0,1,0,4.969Z" transform="translate(-364.125 -252.136)"/><path class="b" d="M391.453,340.98h-4.969a2.484,2.484,0,0,1,0-4.969h4.969a2.484,2.484,0,0,1,0,4.969Z" transform="translate(-364.125 -306.198)"/></g><path class="c" d="M43.819,16.564a2.441,2.441,0,0,0-2.042-.527L2.027,23.491A2.477,2.477,0,0,0,0,25.93V80.587a2.481,2.481,0,0,0,2.027,2.44l39.75,7.453a2.338,2.338,0,0,0,.457.045,2.485,2.485,0,0,0,2.484-2.484V18.477A2.478,2.478,0,0,0,43.819,16.564Z" transform="translate(0 0)"/><path class="d" d="M101.729,183.233l-7.856-8.979,7.945-10.216a2.485,2.485,0,1,0-3.92-3.056l-7.359,9.46-6.2-7.085a2.482,2.482,0,1,0-3.737,3.269l6.832,7.811-6.926,8.9a2.486,2.486,0,0,0,3.925,3.051l6.335-8.149,7.225,8.253a2.481,2.481,0,1,0,3.736-3.264Z" transform="translate(-67.564 -121.672)"/></g></svg>