<svg xmlns="http://www.w3.org/2000/svg" width="98.95" height="156.862" viewBox="0 0 98.95 156.862"><defs><style>.a{fill:#005c96;}.b{fill:#fff;}</style></defs><g transform="translate(-130.907 -122.953)"><path class="a" d="M265.866,279.815H210.844A11.041,11.041,0,0,1,199.8,268.774V133.994a11.041,11.041,0,0,1,11.041-11.041h55.022a11.041,11.041,0,0,1,11.041,11.041v134.78A11.041,11.041,0,0,1,265.866,279.815Z" transform="translate(-47.05)"/><path class="b" d="M274.521,135.263h-5.305a1.817,1.817,0,0,0-1.816,1.817,3.537,3.537,0,0,1-3.537,3.537h-31.18a3.537,3.537,0,0,1-3.537-3.537,1.817,1.817,0,0,0-1.817-1.817h-5.3a7.7,7.7,0,0,0-7.7,7.7V275.5a7.7,7.7,0,0,0,7.7,7.7h52.5a7.7,7.7,0,0,0,7.7-7.7V142.962A7.7,7.7,0,0,0,274.521,135.263Z" transform="translate(-56.967 -8.407)"/><g transform="translate(173.12 220.51)"><path class="a" d="M266.036,481.574l-2-2.067,16.232-15.724,11.288,9.234,14.065-13.5,1.992,2.076L291.706,476.86l-11.279-9.227Z" transform="translate(-264.034 -450.352)"/><path class="a" d="M306.951,451.023l-3.914-6.85h7.829Z" transform="translate(-290.67 -439.876)"/><path class="a" d="M386.609,437.471l-3.915-6.85h7.829Z" transform="translate(-345.068 -430.621)"/><rect class="a" width="8.728" height="11.174" transform="translate(0.937 35.087)"/><rect class="a" width="8.728" height="20.363" transform="translate(12.161 25.898)"/><rect class="a" width="8.728" height="15.954" transform="translate(23.384 30.307)"/><rect class="a" width="8.728" height="22.86" transform="translate(34.608 23.401)"/></g><g transform="translate(130.907 191.244)"><path class="a" d="M173.667,362.577a18.653,18.653,0,0,0-.119-2.078l5.865-3.291-3.307-7.984-6.476,1.821a18.586,18.586,0,0,0-2.938-2.938l1.821-6.476-7.984-3.307-3.291,5.865a18.173,18.173,0,0,0-4.157,0l-3.291-5.865-7.984,3.307,1.821,6.476a18.585,18.585,0,0,0-2.938,2.938l-6.476-1.821-3.307,7.984,5.864,3.291a18.178,18.178,0,0,0,0,4.157l-5.864,3.291,3.307,7.984,6.476-1.821a18.587,18.587,0,0,0,2.938,2.938l-1.821,6.476,7.984,3.307,3.291-5.864a18.173,18.173,0,0,0,4.157,0l3.291,5.864,7.984-3.307-1.821-6.476a18.59,18.59,0,0,0,2.938-2.938l6.476,1.821,3.307-7.984-5.865-3.291A18.66,18.66,0,0,0,173.667,362.577Z" transform="translate(-130.907 -338.325)"/><circle class="b" cx="11.692" cy="11.692" r="11.692" transform="translate(12.561 12.56)"/><path class="a" d="M190.5,403l-3.281-3.089-2.764,2.89,6.044,5.715,8.866-8.469-2.821-2.821Z" transform="translate(-167.474 -378.551)"/></g><g transform="translate(164.036 150.869)"><rect class="a" width="54.539" height="4.228" rx="2.114" transform="translate(0 0)"/><rect class="a" width="54.539" height="4.228" rx="2.114" transform="translate(0 9.988)"/><path class="a" d="M263.976,278.22H237.5a2.114,2.114,0,0,1-2.114-2.114h0a2.114,2.114,0,0,1,2.114-2.114h26.477a2.114,2.114,0,0,1,2.114,2.114h0A2.114,2.114,0,0,1,263.976,278.22Z" transform="translate(-235.385 -254.016)"/></g></g></svg>