<svg xmlns="http://www.w3.org/2000/svg" width="93.648" height="119.743" viewBox="0 0 93.648 119.743"><defs><style>.a{fill:#0869c9;}.a,.b,.c,.d{fill-rule:evenodd;}.b{fill:#e0e1e3;}.c{fill:#3d9fff;}.d{fill:#30d4f8;}</style></defs><g transform="translate(-0.069 0.068)"><path class="a" d="M60.89.286A24.99,24.99,0,0,0,42.316,16.911l-.54,1.714-3.053.141A24.627,24.627,0,0,0,21.65,26.28c-6.834,7-8.5,18.153-4.086,27.358A28.369,28.369,0,0,0,19.3,56.808l.681,1.01L18.48,60.4a13.522,13.522,0,0,0-1.5,3.146,13.107,13.107,0,0,0,.446,2.183c.352,1.174.4,1.62.188,1.714-.165.046-1.009.305-1.926.563-2.56.728-2.818,1.292-2,4.251.329,1.221.376,1.668.165,1.737-.165.046-.963.282-1.808.494-1.761.469-2.583,1.08-2.583,1.949a13.575,13.575,0,0,0,.446,2.254,15.488,15.488,0,0,1,.423,1.668c-.023.023-.892.258-1.926.54-1.972.494-2.7,1.034-2.7,2a15.321,15.321,0,0,0,.469,2.254c.258.963.469,1.785.469,1.785a16.564,16.564,0,0,1-1.691.446,11.693,11.693,0,0,0-2.183.7,14.905,14.905,0,0,0-2.7,4.791,76.632,76.632,0,0,0,4.226,9.98,1.86,1.86,0,0,0,1.362.423,96.477,96.477,0,0,0,9.933-1.245c.469-.188,1.5-1.785,4.508-6.974C22.237,91.351,26.722,83.6,30.056,77.8l6.082-10.52,3.5-.07a22.582,22.582,0,0,0,8.806-1.643l1.432-.588,1.808,1.9a23.779,23.779,0,0,0,6.528,5.049l1.737.892v6.269l1.526,1.574,1.5,1.574-1.386,1.386a5.358,5.358,0,0,0-1.549,2.16c-.142.7-.023.892,1.386,2.348l1.55,1.6-1.526,1.574c-1.949,2.02-1.949,2.325-.094,4.274a10.112,10.112,0,0,1,1.409,1.668,10.108,10.108,0,0,1-1.409,1.668,6.331,6.331,0,0,0-1.409,1.855c0,.657.634,1.6,1.855,2.794l1.2,1.174-1.526,1.574-1.526,1.574v2.442c0,1.737.094,2.56.352,2.912a46.551,46.551,0,0,0,4.3,3.476c3.217,2.395,4.109,2.959,4.743,2.959s1.526-.563,4.743-2.959a46.3,46.3,0,0,0,4.3-3.476c.305-.4.352-3.358.352-20.453V72.8l1.6-.775a24.734,24.734,0,0,0,13.34-23.063,24.928,24.928,0,0,0-4.556-12.728c-.634-.822-1.221-1.62-1.315-1.761a2.9,2.9,0,0,1,.329-1.339,25.879,25.879,0,0,0,.94-2.935A23.548,23.548,0,0,0,83.315,7.683,24.555,24.555,0,0,0,70.518.357,30.076,30.076,0,0,0,60.89.285ZM70.8,4.114c7.35,1.9,12.8,7.445,14.888,15.193a18.855,18.855,0,0,1,.446,5.143c0,3.052-.094,3.78-.563,5.331a12.155,12.155,0,0,1-.634,1.831c-.046,0-.751-.494-1.55-1.08a24.1,24.1,0,0,0-22.965-2.818l-1.432.563-2-2.066a23.7,23.7,0,0,0-10.239-6.457l-1.315-.423.352-1.2a26.2,26.2,0,0,1,2.677-5.706A24.814,24.814,0,0,1,53.7,7.145,21.651,21.651,0,0,1,70.8,4.114ZM43.231,22.594a22.984,22.984,0,0,1,6.9,2.677c1.691,1.009,5.354,4.3,5.354,4.814a6.935,6.935,0,0,1-1.574,1.549c-6.152,5-9.7,13.526-8.782,21.111a24.314,24.314,0,0,0,1.9,7.209,11.852,11.852,0,0,1,.7,1.737c0,.305-1.55.892-3.757,1.432-1.737.423-2.489.469-5.706.352-3.217-.094-3.757-.071-4.157.258-.235.235-4.931,8.172-10.4,17.659l-9.98,17.259-3.006.4c-1.668.211-3.263.4-3.523.4-.446.023-.7-.446-1.855-3.123-1.245-2.912-1.339-3.217-1.08-3.874.446-1.057.892-1.315,3.146-1.9,3.288-.869,3.64-1.362,2.865-4.226-.54-2.02-.563-1.972,1.432-2.442,2.771-.657,3.052-1.174,2.277-4.18a4.793,4.793,0,0,1-.258-1.714,12.164,12.164,0,0,1,1.855-.611c2.583-.7,2.982-1.48,2.208-4.063-.563-1.879-.54-1.9,1.339-2.4,3.006-.775,3.194-1.244,2.183-4.908L20.736,63.9l1.643-2.842a12.59,12.59,0,0,0,1.643-3.523,5.246,5.246,0,0,0-1.174-2.208,23,23,0,0,1-3.569-7.162,23.607,23.607,0,0,1,0-10.333A21.175,21.175,0,0,1,34.967,22.612a24.561,24.561,0,0,1,8.264-.018Zm30.5,7.491a20.68,20.68,0,0,1,7.233,3.006c2.419,1.6,2.489,1.761,1.645,2.982a24.192,24.192,0,0,1-4.791,4.766l-1.48,1.1-.634-.986A9.253,9.253,0,0,0,72.326,37.9a8.005,8.005,0,0,0-5.988,0,8.829,8.829,0,0,0-3.686,3.734,7.133,7.133,0,0,0-.188,5.754,9.512,9.512,0,0,0,3.757,3.945,7.817,7.817,0,0,0,5.471.352,8.783,8.783,0,0,0,4.556-4.414c.494-1.245.681-1.456,2.629-2.723a28.052,28.052,0,0,0,6.317-6.082c.258-.423.517-.751.611-.751.259,0,1.55,2.137,2.4,3.992a17.887,17.887,0,0,1,1.737,7.631,19.562,19.562,0,0,1-3.123,12.14,20.333,20.333,0,0,1-8.877,7.608,10.6,10.6,0,0,0-2.606,1.574c-.305.446-.352,3.006-.352,20.618V111.4l-2.7,2.02a24.541,24.541,0,0,1-2.935,2.02,24.455,24.455,0,0,1-2.935-2.02l-2.7-2.02v-1.08c0-1.034.094-1.151,1.879-3.006,2.372-2.419,2.395-2.654.469-4.65A10.111,10.111,0,0,1,64.651,101a10.125,10.125,0,0,1,1.409-1.667c1.009-1.034,1.409-1.643,1.409-2.09s-.4-1.057-1.409-2.09a10.112,10.112,0,0,1-1.409-1.668,10.109,10.109,0,0,1,1.409-1.668c1.856-1.926,1.856-2.254,0-4.18a10.167,10.167,0,0,1-1.409-1.668A10.165,10.165,0,0,1,66.06,84.3c1.923-1.992,1.9-2.226-.473-4.645l-1.879-1.926V74.326c-.023-2.3-.117-3.5-.305-3.734A17.906,17.906,0,0,0,60.42,68.9,20.036,20.036,0,0,1,49.477,56.15c-.586-1.9-.634-2.466-.657-5.754a17.842,17.842,0,0,1,.517-5.519C52.3,34.147,62.581,27.9,73.735,30.085ZM71.529,41.45c1.456.822,2.043,3.5,1.151,5.189-1.292,2.442-5.518,2.395-6.646-.071-1.08-2.419-.024-5.025,2.254-5.519a4.58,4.58,0,0,1,3.24.4Z" transform="translate(0 0)"/><path class="b" d="M11586.7,7243.762c1.457.822,2.043,3.5,1.15,5.189-1.291,2.443-5.518,2.395-6.645-.071-1.08-2.419-.025-5.026,2.254-5.519A4.579,4.579,0,0,1,11586.7,7243.762Z" transform="translate(-11515.176 -7202.312)"/><path class="c" d="M8639.153,5251.766a20.681,20.681,0,0,1,7.233,3.006c2.419,1.6,2.488,1.76,1.644,2.982a24.167,24.167,0,0,1-4.79,4.766l-1.479,1.1-.634-.987a9.255,9.255,0,0,0-3.382-3.053,8,8,0,0,0-5.988,0,8.833,8.833,0,0,0-3.687,3.733,7.137,7.137,0,0,0-.187,5.753,9.511,9.511,0,0,0,3.757,3.945,7.813,7.813,0,0,0,5.472.352,8.78,8.78,0,0,0,4.556-4.414c.494-1.246.681-1.457,2.631-2.724a28.063,28.063,0,0,0,6.315-6.083c.258-.422.518-.751.611-.751.259,0,1.551,2.137,2.4,3.992a17.894,17.894,0,0,1,1.738,7.631,19.558,19.558,0,0,1-3.124,12.14,20.332,20.332,0,0,1-8.876,7.608,10.612,10.612,0,0,0-2.606,1.573c-.306.446-.352,3.006-.352,20.618v20.125l-2.7,2.02a24.709,24.709,0,0,1-2.935,2.02,24.416,24.416,0,0,1-2.936-2.02l-2.7-2.02v-1.08c0-1.034.094-1.151,1.879-3.005,2.371-2.419,2.394-2.654.469-4.65a1.691,1.691,0,0,1,0-3.334c1.009-1.034,1.409-1.644,1.409-2.091s-.4-1.057-1.409-2.091a1.692,1.692,0,0,1,0-3.335c1.856-1.925,1.856-2.254,0-4.18a1.692,1.692,0,0,1,0-3.335c1.924-1.992,1.9-2.226-.473-4.645l-1.88-1.926v-3.4c-.022-2.3-.116-3.5-.3-3.734a17.938,17.938,0,0,0-2.982-1.691,20.033,20.033,0,0,1-10.942-12.751c-.587-1.9-.635-2.466-.657-5.754a17.842,17.842,0,0,1,.517-5.519C8617.714,5255.829,8628,5249.583,8639.153,5251.766Z" transform="translate(-8565.419 -5221.681)"/><path class="d" d="M761.517,3944.244a22.991,22.991,0,0,1,6.9,2.677c1.691,1.009,5.354,4.3,5.354,4.814a6.936,6.936,0,0,1-1.574,1.549c-6.152,5-9.7,13.526-8.782,21.111a24.309,24.309,0,0,0,1.9,7.208,11.864,11.864,0,0,1,.705,1.738c0,.305-1.55.892-3.757,1.431-1.737.423-2.489.469-5.706.352-3.217-.094-3.757-.071-4.157.258-.235.235-4.931,8.172-10.4,17.659l-9.98,17.259-3.006.4c-1.668.212-3.263.4-3.523.4-.446.023-.7-.446-1.855-3.123-1.245-2.911-1.339-3.217-1.08-3.874.446-1.057.892-1.315,3.146-1.9,3.288-.869,3.64-1.363,2.865-4.226-.54-2.02-.563-1.972,1.432-2.442,2.771-.657,3.052-1.174,2.278-4.18a4.792,4.792,0,0,1-.258-1.714,12.148,12.148,0,0,1,1.855-.611c2.583-.7,2.982-1.48,2.208-4.063-.563-1.879-.54-1.9,1.339-2.4,3.006-.775,3.194-1.244,2.183-4.908l-.586-2.114,1.643-2.842a12.59,12.59,0,0,0,1.643-3.522,5.244,5.244,0,0,0-1.174-2.208,23,23,0,0,1-3.569-7.162,23.608,23.608,0,0,1,0-10.333,21.174,21.174,0,0,1,15.687-15.216,24.557,24.557,0,0,1,8.264-.018Z" transform="translate(-718.286 -3921.651)"/></g></svg>