<svg xmlns="http://www.w3.org/2000/svg" width="116.692" height="96.604" viewBox="0 0 116.692 96.604"><defs><style>.a{fill:#e0e1e3;isolation:isolate;}.b{fill:#0869c9;}.c{fill:#3d9fff;}.d{fill:#30d4f8;}</style></defs><g transform="translate(-299.784 -355.456)"><path class="a" d="M175.476,234.907c3.442-7.649,14.532-6.311,15.3,1.976,7.138,0,7.011,11.6.574,11.6l-16.678-.51C166.744,247.973,167.063,234.907,175.476,234.907Z" transform="translate(130.846 125.602)"/><path class="a" d="M356.614,314.409c3.442-7.649,14.532-6.31,15.3,1.976,7.138,0,7.011,11.6.573,11.6l-16.678-.51C347.881,327.475,348.2,314.409,356.614,314.409Z" transform="translate(39.186 85.372)"/><path class="b" d="M172.815,285.274l61.895,50.039c4.184,3.358,10.807,1.412,12.281-2.773l26.591-73.284a6.4,6.4,0,0,0-7.624-8.32l-90.677,23.2A6.4,6.4,0,0,0,172.815,285.274Z" transform="translate(130.07 115.039)"/><path class="c" d="M242.139,336.439,180.221,286.38a1.915,1.915,0,0,1,.763-3.315l90.672-23.2a2.087,2.087,0,0,1,.517-.069,1.907,1.907,0,0,1,1.538.83,1.828,1.828,0,0,1,.232,1.728L247.367,335.6C246.557,337.892,243.531,337.745,242.139,336.439Z" transform="translate(125.482 110.449)"/><path class="b" d="M299.456,255.222,228.909,308.8l4.677,12.953A8.434,8.434,0,0,0,248.07,324.2L301.735,258A1.8,1.8,0,0,0,299.456,255.222Z" transform="translate(100.499 112.954)"/><path class="d" d="M286.134,294.2l-47.38,35.976,3.344,8.8c1.433,3.967,5.661,4.848,8.318,1.571l36.55-45.629C287.379,294.361,286.811,293.687,286.134,294.2Z" transform="translate(95.518 93.134)"/></g></svg>